<svg id="_34hbmL.tif" data-name="34hbmL.tif" xmlns="http://www.w3.org/2000/svg" width="42.128" height="42.169" viewBox="0 0 42.128 42.169">
  <g id="Group_13" data-name="Group 13" transform="translate(-138.159 -86.94)">
    <path id="Path_41" data-name="Path 41" d="M159.259,86.94c2.829.05,5.658.078,8.487.157a13.8,13.8,0,0,1,6.968,1.809,10.486,10.486,0,0,1,5.06,7.421,37.668,37.668,0,0,1,.474,5.824c.064,4.183.039,8.368-.007,12.551a20.391,20.391,0,0,1-.825,6.512,10.583,10.583,0,0,1-8.5,7.383,34.1,34.1,0,0,1-5.823.474c-4.168.064-8.337.038-12.5-.006a20.538,20.538,0,0,1-6.513-.819,10.587,10.587,0,0,1-7.4-8.484,33.591,33.591,0,0,1-.477-5.823c-.063-4.183-.039-8.368.007-12.551a20.357,20.357,0,0,1,.826-6.511,10.578,10.578,0,0,1,8.5-7.382,39.488,39.488,0,0,1,5.823-.479c1.966-.077,3.937-.017,5.906-.017Zm17.3,20.768-.085,0c0-1.661.034-3.323-.01-4.984-.042-1.6-.1-3.2-.264-4.786a7.079,7.079,0,0,0-5.987-6.682,33.576,33.576,0,0,0-5.641-.439c-3.568-.064-7.138-.056-10.706,0a38.375,38.375,0,0,0-5.329.367,6.874,6.874,0,0,0-5.968,5.238,12.356,12.356,0,0,0-.452,3c-.091,3.813-.147,7.627-.134,11.441.009,2.427.064,4.862.275,7.277a7.067,7.067,0,0,0,6.088,6.739,34.725,34.725,0,0,0,5.6.4c3.522.06,7.046.044,10.568.006,1.612-.018,3.228-.108,4.832-.267a7.689,7.689,0,0,0,4.112-1.6,7.8,7.8,0,0,0,2.829-6.075C176.441,114.136,176.472,110.921,176.557,107.708Z" fill="#f1f2f2"/>
    <path id="Path_42" data-name="Path 42" d="M170.037,108.056a10.815,10.815,0,1,1-10.711-10.825A10.772,10.772,0,0,1,170.037,108.056Zm-10.819,7.007a7.017,7.017,0,1,0-7.012-7.022A7.051,7.051,0,0,0,159.218,115.063Z" fill="#f1f2f2"/>
    <path id="Path_43" data-name="Path 43" d="M172.991,96.794a2.537,2.537,0,0,1-2.529,2.557,2.571,2.571,0,0,1-2.544-2.56,2.532,2.532,0,0,1,2.526-2.513A2.482,2.482,0,0,1,172.991,96.794Z" fill="#f1f2f2"/>
  </g>
</svg>
