<svg id="Component" xmlns="http://www.w3.org/2000/svg" width="42.174" height="42.13" viewBox="0 0 42.174 42.13">
  <path id="Path_44" data-name="Path 44" d="M273.617,106.98a20.684,20.684,0,0,0-41.329-.389,5.651,5.651,0,0,0-.046.891,20.5,20.5,0,0,0,2.972,10.607l-3.749,11.019,11.475-3.635a20.755,20.755,0,0,0,30.7-17.991c0-.182-.022-.32-.022-.5Zm-11.2,4.664c-.525-.252-2.993-1.487-3.452-1.669-.5-.137-.823-.252-1.166.274a21.566,21.566,0,0,1-1.6,1.943c-.3.366-.6.389-1.074.159a12.836,12.836,0,0,1-4.092-2.513,14.964,14.964,0,0,1-2.835-3.453c-.274-.548-.047-.776.205-1.074a5.857,5.857,0,0,0,.778-.869.868.868,0,0,0,.182-.228,4.813,4.813,0,0,0,.32-.594.787.787,0,0,0-.045-.869c-.091-.252-1.12-2.766-1.555-3.75-.411-1.027-.846-.845-1.119-.845-.322,0-.641-.045-.983-.045a1.746,1.746,0,0,0-1.349.64,5.421,5.421,0,0,0-1.806,4.205,5.273,5.273,0,0,0,.3,1.693,11.218,11.218,0,0,0,1.784,3.5c.251.342,3.5,5.577,8.662,7.589,5.189,2.012,5.189,1.326,6.1,1.257s2.994-1.188,3.429-2.4a4.116,4.116,0,0,0,.274-2.4,2.891,2.891,0,0,0-.96-.548Zm-9.486,13.121a17.342,17.342,0,0,1-9.556-2.858l-6.674,2.126,2.148-6.424a17.11,17.11,0,0,1-3.314-10.127,13.713,13.713,0,0,1,.091-1.668,17.407,17.407,0,0,1,34.654.32,13.419,13.419,0,0,1,.046,1.348,17.366,17.366,0,0,1-17.4,17.283Z" transform="translate(-231.465 -86.978)" fill="#f1f2f2" fill-rule="evenodd"/>
</svg>
