<svg xmlns="http://www.w3.org/2000/svg" width="59.778" height="59.737" viewBox="0 0 59.778 59.737">
  <g id="Component_17_1" data-name="Component 17 – 1" transform="translate(0)">
    <path id="Path_1102" data-name="Path 1102" d="M79.069,38H38.912a.913.913,0,0,0-.913.912V89.985a.913.913,0,0,0,.913.912H79.069a.913.913,0,0,0,.913-.912V38.913A.913.913,0,0,0,79.069,38Z" transform="translate(-37.315 -37.317)" fill="#f9ff45"/>
    <path id="Path_1103" data-name="Path 1103" d="M74.5,38H38.912a.913.913,0,0,0-.913.912V87.249H74.5Z" transform="translate(-37.315 -37.317)" fill="#fff"/>
    <path id="Path_1104" data-name="Path 1104" d="M79,91.515H38.847a1.6,1.6,0,0,1-1.6-1.6V38.847a1.6,1.6,0,0,1,1.6-1.6H79a1.6,1.6,0,0,1,1.6,1.6V89.919A1.6,1.6,0,0,1,79,91.515Zm-40.156-52.9a.228.228,0,0,0-.228.228V89.919a.228.228,0,0,0,.228.228H79a.228.228,0,0,0,.228-.228V38.847A.228.228,0,0,0,79,38.619Z" transform="translate(-37.25 -37.251)" fill="#707070"/>
    <path id="Path_1105" data-name="Path 1105" d="M85.069,44H51.3L44,51.3V95.986a.913.913,0,0,0,.913.912H85.069a.912.912,0,0,0,.913-.912V44.914A.913.913,0,0,0,85.069,44Z" transform="translate(-37.84 -37.845)" fill="#f9ff45"/>
    <path id="Path_1106" data-name="Path 1106" d="M80.506,44H51.3L44,51.3V93.25H79.593a.913.913,0,0,0,.913-.912Z" transform="translate(-37.84 -37.845)" fill="#fff"/>
    <path id="Path_1107" data-name="Path 1107" d="M85,97.516H44.847a1.6,1.6,0,0,1-1.6-1.6V51.232a.681.681,0,0,1,.2-.483l7.3-7.3a.685.685,0,0,1,.484-.2H85a1.6,1.6,0,0,1,1.6,1.6V95.92A1.6,1.6,0,0,1,85,97.516Zm-40.384-46v44.4a.228.228,0,0,0,.228.228H85a.228.228,0,0,0,.228-.228V44.848A.228.228,0,0,0,85,44.62H51.519Z" transform="translate(-37.774 -37.779)" fill="#707070"/>
    <path id="Path_1108" data-name="Path 1108" d="M44,51.3h7.3V44Z" transform="translate(-37.84 -37.845)" fill="#fff"/>
    <path id="Path_1109" data-name="Path 1109" d="M51.236,51.916h-7.3a.684.684,0,0,1-.484-1.167l7.3-7.3a.684.684,0,0,1,1.168.483v7.3A.684.684,0,0,1,51.236,51.916Zm-5.649-1.368H50.55v-4.96Z" transform="translate(-37.774 -37.779)" fill="#707070"/>
    <path id="Path_1110" data-name="Path 1110" d="M49.934,97.577a.684.684,0,0,1-.5-1.155,27.1,27.1,0,0,0,1.859-2.1,3.858,3.858,0,0,1-1.381-3.345,2.69,2.69,0,0,1,1.076-1.792,1.975,1.975,0,0,1,1.558-.346,1.86,1.86,0,0,1,1.226.87,3.119,3.119,0,0,1,.247,2.346,7.769,7.769,0,0,1-.832,1.924,4.507,4.507,0,0,0,.989.368,6.306,6.306,0,0,0,5.2-1.072,7.168,7.168,0,0,0,.671-.706,4.43,4.43,0,0,1-1.836-3.989A2.969,2.969,0,0,1,59.4,86.6a2.158,2.158,0,0,1,1.7-.379,2.442,2.442,0,0,1,1.575,1.145,3.072,3.072,0,0,1,.352,2.369,9.944,9.944,0,0,1-1.044,2.441,5.107,5.107,0,0,0,.977.343,5.351,5.351,0,0,0,2.362.119.684.684,0,0,1,.235,1.348,6.7,6.7,0,0,1-2.916-.135,6.617,6.617,0,0,1-1.445-.534,8.469,8.469,0,0,1-.905.971,7.568,7.568,0,0,1-6.441,1.392,5.868,5.868,0,0,1-1.446-.561,27.978,27.978,0,0,1-1.985,2.244A.676.676,0,0,1,49.934,97.577Zm2.228-7.407a.65.65,0,0,0-.377.134,1.319,1.319,0,0,0-.511.855,2.444,2.444,0,0,0,.8,2.018A6.29,6.29,0,0,0,52.7,91.7a1.772,1.772,0,0,0-.094-1.273.494.494,0,0,0-.339-.246A.588.588,0,0,0,52.162,90.17Zm8.521-2.625a.836.836,0,0,0-.486.171,1.615,1.615,0,0,0-.626,1.045,3.067,3.067,0,0,0,1.266,2.686,8.587,8.587,0,0,0,.879-2.069,1.731,1.731,0,0,0-.2-1.3,1.086,1.086,0,0,0-.689-.522A.7.7,0,0,0,60.683,87.545Z" transform="translate(-38.298 -41.557)" fill="#707070"/>
    <path id="Path_1111" data-name="Path 1111" d="M73.537,52.62h-14.6a.684.684,0,1,1,0-1.368h14.6a.684.684,0,1,1,0,1.368Z" transform="translate(-39.085 -38.483)" fill="#707070"/>
    <path id="Path_1112" data-name="Path 1112" d="M70.409,57.62H64.934a.684.684,0,1,1,0-1.368h5.474a.684.684,0,1,1,0,1.368Z" transform="translate(-39.609 -38.923)" fill="#707070"/>
    <path id="Path_1113" data-name="Path 1113" d="M59.974,57.62H49.934a.684.684,0,1,1,0-1.368H59.974a.684.684,0,1,1,0,1.368Z" transform="translate(-38.298 -38.923)" fill="#707070"/>
    <path id="Path_1114" data-name="Path 1114" d="M82.974,62.621H72.936a.684.684,0,1,1,0-1.368H82.974a.684.684,0,1,1,0,1.368Z" transform="translate(-40.308 -39.363)" fill="#223f73"/>
    <path id="Path_1115" data-name="Path 1115" d="M66.324,62.621H59.934a.684.684,0,1,1,0-1.368h6.389a.684.684,0,1,1,0,1.368Z" transform="translate(-39.172 -39.363)" fill="#707070"/>
    <path id="Path_1116" data-name="Path 1116" d="M55.41,62.621H49.934a.684.684,0,1,1,0-1.368H55.41a.684.684,0,1,1,0,1.368Z" transform="translate(-38.298 -39.363)" fill="#707070"/>
    <path id="Path_1117" data-name="Path 1117" d="M62.712,67.621H49.934a.684.684,0,1,1,0-1.368H62.713a.684.684,0,1,1,0,1.368Z" transform="translate(-38.298 -39.803)" fill="#707070"/>
    <path id="Path_1118" data-name="Path 1118" d="M77.236,72.622h-7.3a.684.684,0,1,1,0-1.368h7.3a.684.684,0,1,1,0,1.368Z" transform="translate(-40.046 -40.243)" fill="#223f73"/>
    <path id="Path_1119" data-name="Path 1119" d="M62.585,72.622H58.934a.684.684,0,1,1,0-1.368h3.651a.684.684,0,1,1,0,1.368Z" transform="translate(-39.085 -40.243)" fill="#707070"/>
    <path id="Path_1120" data-name="Path 1120" d="M54.5,72.622H49.934a.684.684,0,1,1,0-1.368H54.5a.684.684,0,1,1,0,1.368Z" transform="translate(-38.298 -40.243)" fill="#707070"/>
    <path id="Path_1121" data-name="Path 1121" d="M61.8,77.622H49.934a.684.684,0,1,1,0-1.368H61.8a.684.684,0,1,1,0,1.368Z" transform="translate(-38.298 -40.683)" fill="#707070"/>
    <path id="Path_1122" data-name="Path 1122" d="M62.71,82.623H49.934a.684.684,0,1,1,0-1.368H62.71a.684.684,0,1,1,0,1.368Z" transform="translate(-38.298 -41.124)" fill="#707070"/>
    <ellipse id="Ellipse_101" data-name="Ellipse 101" cx="16.875" cy="15.926" rx="16.875" ry="15.926" transform="translate(25.781 18.266)" fill="#fff"/>
    <path id="Path_1129" data-name="Path 1129" d="M93.662,61.691a16.408,16.408,0,0,1-25.35,20.173,16.415,16.415,0,1,0,25.35-20.173Z" transform="translate(-39.964 -39.402)" fill="#f9ff45"/>
    <path id="Path_1130" data-name="Path 1130" d="M82.362,90.451a17.1,17.1,0,1,1,17.112-17.1A17.125,17.125,0,0,1,82.362,90.451Zm0-32.832A15.732,15.732,0,1,0,98.105,73.351,15.755,15.755,0,0,0,82.362,57.619Z" transform="translate(-39.696 -38.923)" fill="#707070"/>
    <path id="Path_1131" data-name="Path 1131" d="M93.974,72.557l-4.217-4.213-8.079,8.041L77.2,71.909l-4.216,4.214,8.695,8.689Z" transform="translate(-40.372 -39.987)" fill="#fff"/>
    <path id="Path_1132" data-name="Path 1132" d="M79.935,79.6l-5.1-5.1-1.852,1.85,8.695,8.689,12.3-12.255-1.854-1.853L83.425,79.6A2.473,2.473,0,0,1,79.935,79.6Z" transform="translate(-40.372 -40.215)" fill="#f9ff45"/>
    <path id="Path_1133" data-name="Path 1133" d="M81.613,85.431a.679.679,0,0,1-.484-.2l-8.7-8.689a.684.684,0,0,1,0-.968L76.65,71.36a.685.685,0,0,1,.968,0l4,3.993,7.593-7.56a.685.685,0,0,1,.967,0l4.217,4.213a.682.682,0,0,1,0,.968L82.1,85.231A.684.684,0,0,1,81.613,85.431Zm-7.728-9.374,7.728,7.723L92.939,72.491l-3.25-3.247L82.1,76.8a.685.685,0,0,1-.967,0l-4-3.992Z" transform="translate(-40.306 -39.921)" fill="#707070"/>
  </g>
</svg>
