<svg id="Component_16_1" data-name="Component 16 – 1" xmlns="http://www.w3.org/2000/svg" width="58.053" height="58.036" viewBox="0 0 58.053 58.036">
  <g id="Group_60" data-name="Group 60">
    <ellipse id="Ellipse_5" data-name="Ellipse 5" cx="28.445" cy="28.434" rx="28.445" ry="28.434" transform="translate(0.534 0.534)" fill="#fff"/>
    <path id="Path_45" data-name="Path 45" d="M47.316,87.316A28.329,28.329,0,0,1,91.081,52.477,28.343,28.343,0,1,0,47.316,87.316Z" transform="translate(-37.336 -37.337)" fill="#f9ff45"/>
    <path id="Path_46" data-name="Path 46" d="M66.278,95.283A29.016,29.016,0,1,1,95.3,66.267,29.054,29.054,0,0,1,66.278,95.283Zm0-56.7a27.687,27.687,0,1,0,27.7,27.687A27.724,27.724,0,0,0,66.278,38.58Z" transform="translate(-37.251 -37.251)" fill="#707070"/>
    <path id="Path_47" data-name="Path 47" d="M75.549,77.844l-.715-2.833H62.593l-.715,2.833a5.685,5.685,0,0,1-3.2,3.8l10.04,5.346,10.029-5.346A5.686,5.686,0,0,1,75.549,77.844Z" transform="translate(-39.687 -41.556)" fill="#f9ff45"/>
    <path id="Path_48" data-name="Path 48" d="M71.288,75.011h-8.7l-.715,2.833a5.685,5.685,0,0,1-3.2,3.8l10.04,5.346,3.476-1.853C69.624,82.009,71.288,75.011,71.288,75.011Z" transform="translate(-39.687 -41.556)" fill="#fff"/>
    <path id="Path_49" data-name="Path 49" d="M68.634,87.573a.665.665,0,0,1-.313-.078l-10.04-5.346a.664.664,0,0,1,.042-1.193A4.992,4.992,0,0,0,61.148,77.6l.715-2.833a.664.664,0,0,1,.644-.5H74.748a.664.664,0,0,1,.644.5l.715,2.833a4.992,4.992,0,0,0,2.826,3.359.665.665,0,0,1,.043,1.193L68.947,87.5A.663.663,0,0,1,68.634,87.573Zm-8.666-6.032,8.666,4.615,8.657-4.614a6.314,6.314,0,0,1-2.471-3.62h0l-.589-2.332h-11.2l-.589,2.332A6.317,6.317,0,0,1,59.967,81.541Z" transform="translate(-39.602 -41.471)" fill="#707070"/>
    <path id="Path_50" data-name="Path 50" d="M85.439,84.135l-7.082-1.224a5.674,5.674,0,0,1-1.348-.409L66.979,87.848,56.939,82.5a5.673,5.673,0,0,1-1.348.409l-7.082,1.224a8.475,8.475,0,0,0-5.134,3.009,28.329,28.329,0,0,0,23.6,12.633h.005A28.331,28.331,0,0,0,90.573,87.143,8.471,8.471,0,0,0,85.439,84.135Z" transform="translate(-37.947 -42.41)" fill="#fff"/>
    <path id="Path_51" data-name="Path 51" d="M69.053,99.777A28.33,28.33,0,0,0,92.648,87.143a8.481,8.481,0,0,0-5.134-3.009L80.431,82.91a5.672,5.672,0,0,1-1.348-.409L69.053,87.847l-1.795-.955a23.074,23.074,0,0,0-5.641,11.893,28.346,28.346,0,0,0,7.43.992Z" transform="translate(-40.021 -42.41)" fill="#f9ff45"/>
    <path id="Path_52" data-name="Path 52" d="M66.894,100.356a29,29,0,0,1-24.158-12.93.664.664,0,0,1,.038-.789,9.169,9.169,0,0,1,5.537-3.243l7.082-1.224a4.982,4.982,0,0,0,1.19-.361.659.659,0,0,1,.583.02l9.728,5.18L76.61,81.83a.66.66,0,0,1,.584-.02,4.958,4.958,0,0,0,1.19.362l7.082,1.224A9.169,9.169,0,0,1,91,86.637a.664.664,0,0,1,.037.789A29,29,0,0,1,66.894,100.356ZM44.125,87.107a27.694,27.694,0,0,0,45.525,0,7.823,7.823,0,0,0-4.41-2.4h0L78.158,83.48a6.366,6.366,0,0,1-1.2-.33l-9.751,5.2a.666.666,0,0,1-.626,0l-9.763-5.2a6.366,6.366,0,0,1-1.2.33L48.536,84.7A7.829,7.829,0,0,0,44.125,87.107Z" transform="translate(-37.862 -42.325)" fill="#707070"/>
    <ellipse id="Ellipse_6" data-name="Ellipse 6" cx="14.149" cy="14.144" rx="14.149" ry="14.144" transform="translate(14.83 7.825)" fill="#fff"/>
    <path id="Path_53" data-name="Path 53" d="M77.938,50.173A14.165,14.165,0,0,1,56.055,67.592,14.171,14.171,0,1,0,77.938,50.173Z" transform="translate(-39.389 -38.724)" fill="#f9ff45"/>
    <path id="Path_54" data-name="Path 54" d="M68.1,74.935a14.84,14.84,0,1,1,14.846-14.84A14.86,14.86,0,0,1,68.1,74.935Zm0-28.352A13.511,13.511,0,1,0,81.613,60.094,13.529,13.529,0,0,0,68.1,46.583Z" transform="translate(-39.07 -38.163)" fill="#707070"/>
    <path id="Path_55" data-name="Path 55" d="M78.864,59.427l-3.887-3.886L67.53,62.957,63.4,58.829l-3.887,3.886,8.018,8.015Z" transform="translate(-39.782 -39.336)" fill="#fff"/>
    <path id="Path_56" data-name="Path 56" d="M65.922,65.988l-4.7-4.7-1.708,1.707,8.017,8.015,11.335-11.3L77.154,58,69.139,65.99A2.276,2.276,0,0,1,65.922,65.988Z" transform="translate(-39.782 -39.616)" fill="#f9ff45"/>
    <path id="Path_57" data-name="Path 57" d="M67.444,71.308a.66.66,0,0,1-.47-.195L58.958,63.1a.663.663,0,0,1,0-.939l3.887-3.886a.665.665,0,0,1,.94,0l3.66,3.659,6.977-6.948a.664.664,0,0,1,.939,0l3.887,3.886a.663.663,0,0,1,0,.939l-11.337,11.3A.663.663,0,0,1,67.444,71.308Zm-7.077-8.679L67.444,69.7,77.838,59.341l-2.947-2.946-6.978,6.948a.664.664,0,0,1-.939,0l-3.66-3.658Z" transform="translate(-39.697 -39.251)" fill="#707070"/>
    <path id="Path_58" data-name="Path 58" d="M69.92,89.115a.666.666,0,0,1-.665-.665.665.665,0,0,1,1.134-.47.664.664,0,0,1-.47,1.134Z" transform="translate(-40.89 -43.014)" fill="#223f73"/>
    <path id="Path_59" data-name="Path 59" d="M69.255,97.782a.664.664,0,0,1,.665-.665h0a.664.664,0,0,1,.665.665h0a.669.669,0,0,1-.665.664h0A.67.67,0,0,1,69.255,97.782Zm0-2.985a.669.669,0,0,1,.665-.664h0a.669.669,0,0,1,.665.664h0a.664.664,0,0,1-.665.664h0A.664.664,0,0,1,69.255,94.8Zm0-2.978a.664.664,0,0,1,.665-.664h0a.664.664,0,0,1,.665.664h0a.669.669,0,0,1-.665.665h0A.67.67,0,0,1,69.255,91.819Z" transform="translate(-40.89 -43.397)" fill="#223f73"/>
    <path id="Path_60" data-name="Path 60" d="M69.92,102.584a.664.664,0,0,1-.47-.195.7.7,0,0,1-.195-.478.681.681,0,0,1,.195-.47.7.7,0,0,1,.94,0,.683.683,0,0,1,.195.47.664.664,0,0,1-.195.47A.635.635,0,0,1,69.92,102.584Z" transform="translate(-40.89 -44.549)" fill="#223f73"/>
    <path id="Path_61" data-name="Path 61" d="M68.719,87.848,61.8,91.837,58.679,82.5Z" transform="translate(-39.687 -42.41)" fill="#fff"/>
    <path id="Path_62" data-name="Path 62" d="M61.717,92.416a.665.665,0,0,1-.63-.454l-3.123-9.336a.665.665,0,0,1,.943-.8l10.04,5.346a.665.665,0,0,1,.02,1.162L62.05,92.325A.647.647,0,0,1,61.717,92.416Zm-1.964-8.63,2.336,6.983,5.173-2.983Z" transform="translate(-39.602 -42.325)" fill="#707070"/>
    <path id="Path_63" data-name="Path 63" d="M70,87.848l6.918,3.989L80.041,82.5Z" transform="translate(-40.974 -42.41)" fill="#fff"/>
    <path id="Path_64" data-name="Path 64" d="M76.832,92.416a.654.654,0,0,1-.332-.089l-6.917-3.988a.665.665,0,0,1,.019-1.162l10.04-5.346a.665.665,0,0,1,.943.8l-3.123,9.336a.665.665,0,0,1-.394.41A.679.679,0,0,1,76.832,92.416Zm-5.547-4.629,5.173,2.983L78.8,83.786Z" transform="translate(-40.889 -42.325)" fill="#707070"/>
    <ellipse id="Ellipse_12" data-name="Ellipse 12" cx="1.75" cy="1.75" rx="1.75" ry="1.75" transform="translate(53.048 49.529)" fill="none"/>
  </g>
</svg>
