<svg xmlns="http://www.w3.org/2000/svg" width="35.72" height="36.92" viewBox="0 0 35.72 36.92">
  <g id="Component" transform="translate(0)">
    <g id="g4780" transform="translate(-322.424 -184.516)">
      <g id="g15">
        <path id="path17-6" d="M355.4,211.367c-1.111-.9-2.3-1.7-3.467-2.518-2.332-1.637-4.463-1.764-6.2.87-.976,1.478-2.343,1.543-3.773.894a16.719,16.719,0,0,1-8.768-8.547c-.788-1.772-.778-3.361,1.067-4.614.977-.663,1.961-1.448,1.883-2.9-.1-1.888-4.689-8.2-6.5-8.866a3.291,3.291,0,0,0-2.257,0c-4.247,1.428-6.006,4.92-4.322,9.056,5.026,12.337,13.869,20.925,26.043,26.169a12.166,12.166,0,0,0,1.856.524c2.771.028,6.018-2.643,6.956-5.293.9-2.55-1.005-3.561-2.514-4.776Z" fill="#f1f2f2"/>
        <path id="path19-1" d="M341.746,186.468c8.9,1.369,13,5.6,14.138,14.565.105.828-.2,2.074.978,2.1,1.235.024.937-1.2.947-2.032.105-8.443-7.256-16.27-15.806-16.558-.645.093-1.979-.445-2.062,1-.056.975,1.068.815,1.8.928Z" fill="#f1f2f2"/>
        <path id="path21-2" d="M343.487,188.926c-.857-.1-1.986-.506-2.186.682-.208,1.247,1.05,1.12,1.86,1.3,5.5,1.228,7.411,3.229,8.316,8.682.132.795-.13,2.032,1.22,1.827,1-.153.64-1.213.724-1.833.044-5.234-4.442-10-9.934-10.659Z" fill="#f1f2f2"/>
        <path id="path23" d="M343.992,193.207c-.572.014-1.132.076-1.342.687-.316.912.348,1.13,1.023,1.238a4.006,4.006,0,0,1,3.667,3.941c.061.61.448,1.1,1.038,1.035.817-.1.891-.825.866-1.516.04-2.526-2.815-5.445-5.252-5.385Z" fill="#f1f2f2"/>
      </g>
    </g>
  </g>
</svg>
