<svg xmlns="http://www.w3.org/2000/svg" width="52.071" height="60.154" viewBox="0 0 52.071 60.154">
  <g id="Group_47" data-name="Group 47" transform="translate(0 0)">
    <rect id="Rectangle_191" data-name="Rectangle 191" width="44.028" height="51.439" transform="translate(8.044 6.428)" fill="#f9ff45"/>
    <path id="Path_711" data-name="Path 711" d="M76.233,214.618H48V167.847H86.82v35.115Z" transform="translate(-41.525 -161.021)" fill="#fff"/>
    <path id="Path_712" data-name="Path 712" d="M92.6,221.158H47.921a.7.7,0,0,1-.67-.728V167.98a.7.7,0,0,1,.67-.728H92.6a.7.7,0,0,1,.67.728V220.43A.7.7,0,0,1,92.6,221.158Zm-44-1.457H91.925V168.709H48.591Z" transform="translate(-41.494 -161.004)" fill="#707070"/>
    <path id="Path_713" data-name="Path 713" d="M75.878,210.869H42V158H86.576v41.93Z" transform="translate(-41.28 -157.272)" fill="#f9ff45"/>
    <path id="Path_714" data-name="Path 714" d="M76.172,211.013H47V163.907a.9.9,0,0,1,.884-.906h38.9v37.141Z" transform="translate(-41.484 -157.416)" fill="#fff"/>
    <path id="Path_715" data-name="Path 715" d="M75.873,211.576H41.92a.678.678,0,0,1-.67-.685V157.936a.678.678,0,0,1,.67-.685H86.594a.678.678,0,0,1,.67.685v42a.691.691,0,0,1-.2.484L76.346,211.375A.66.66,0,0,1,75.873,211.576Zm-33.282-1.37H75.6l10.33-10.556v-41.03H42.591v51.586Z" transform="translate(-41.25 -157.251)" fill="#707070"/>
    <path id="Path_716" data-name="Path 716" d="M80,215.656,91.511,204H80Z" transform="translate(-46.216 -162.059)" fill="#f9ff45"/>
    <path id="Path_717" data-name="Path 717" d="M80,215.656,91.511,204H85.756Z" transform="translate(-46.216 -162.059)" fill="#fff"/>
    <path id="Path_718" data-name="Path 718" d="M79.969,216.362a.7.7,0,0,1-.275-.056.729.729,0,0,1-.444-.672V203.978a.724.724,0,0,1,.719-.728H91.48a.72.72,0,0,1,.665.45.734.734,0,0,1-.156.793L80.478,216.149A.711.711,0,0,1,79.969,216.362Zm.719-11.656v9.168l9.054-9.168Z" transform="translate(-46.185 -162.037)" fill="#707070"/>
    <path id="Path_719" data-name="Path 719" d="M85.806,166.709H81.97a.729.729,0,0,1,0-1.457h3.836a.729.729,0,0,1,0,1.457Z" transform="translate(-45.47 -157.481)" fill="#707070"/>
    <path id="Path_720" data-name="Path 720" d="M77.726,166.709H71.972a.729.729,0,0,1,0-1.457h5.754a.729.729,0,0,1,0,1.457Z" transform="translate(-44.492 -157.481)" fill="#707070"/>
    <path id="Path_721" data-name="Path 721" d="M83.766,171.71H78.971a.729.729,0,0,1,0-1.457h4.794a.729.729,0,0,1,0,1.457Z" transform="translate(-45.2 -158.328)" fill="#707070"/>
    <path id="Path_722" data-name="Path 722" d="M74.848,171.71H71.972a.729.729,0,0,1,0-1.457h2.876a.729.729,0,0,1,0,1.457Z" transform="translate(-44.379 -158.328)" fill="#707070"/>
    <path id="Path_723" data-name="Path 723" d="M85.806,176.71H81.97a.729.729,0,0,1,0-1.457h3.836a.729.729,0,0,1,0,1.457Z" transform="translate(-45.47 -158.743)" fill="#707070"/>
    <path id="Path_724" data-name="Path 724" d="M77.726,176.71H71.972a.729.729,0,0,1,0-1.457h5.754a.729.729,0,0,1,0,1.457Z" transform="translate(-44.492 -158.743)" fill="#707070"/>
    <path id="Path_725" data-name="Path 725" d="M79.644,181.711H71.971a.729.729,0,0,1,0-1.457h7.673a.729.729,0,0,1,0,1.457Z" transform="translate(-44.576 -159.157)" fill="#707070"/>
    <path id="Path_726" data-name="Path 726" d="M64.985,175.411l-3.418-.91H53.623l-3.419.91A2.98,2.98,0,0,0,48,178.3v2.513H67.188V178.3A2.987,2.987,0,0,0,64.985,175.411Z" transform="translate(-41.525 -158.76)" fill="#fff"/>
    <path id="Path_727" data-name="Path 727" d="M67.155,181.521H47.97a.724.724,0,0,1-.719-.728V178.28a3.711,3.711,0,0,1,2.739-3.595l3.419-.91a.721.721,0,0,1,.182-.023h7.944a.766.766,0,0,1,.182.023l3.418.91a3.71,3.71,0,0,1,2.738,3.595v2.513A.72.72,0,0,1,67.155,181.521ZM48.69,180.064H66.436V178.28a2.255,2.255,0,0,0-1.664-2.185h0l-3.329-.886H53.685l-3.33.886a2.256,2.256,0,0,0-1.665,2.185v1.784Z" transform="translate(-41.494 -158.719)" fill="#707070"/>
    <path id="Path_728" data-name="Path 728" d="M60.764,175.855A2.039,2.039,0,0,0,61.8,174.4a3.109,3.109,0,0,1-1.641-2.176c-.025-.14-.045-1.025-.06-1.158l-4.546,0c-.017.152-.041,1.061-.073,1.226a2.992,2.992,0,0,1-1.623,2.1,2.059,2.059,0,0,0,1.047,1.45A5.1,5.1,0,0,0,60.764,175.855Z" transform="translate(-42.626 -158.451)" fill="#fff"/>
    <path id="Path_729" data-name="Path 729" d="M57.807,177.489a5.777,5.777,0,0,1-3.341-1.06,2.674,2.674,0,0,1-1.355-2.031.73.73,0,0,1,.4-.67,2.254,2.254,0,0,0,1.235-1.591c.014-.1.025-.411.037-.674.01-.227.02-.426.028-.5a.722.722,0,0,1,.715-.645l4.546,0h0a.723.723,0,0,1,.715.644c.007.062.017.27.025.5s.019.524.032.625a2.387,2.387,0,0,0,1.259,1.642.728.728,0,0,1,.391.66,2.657,2.657,0,0,1-1.349,2.037h0A5.78,5.78,0,0,1,57.807,177.489ZM54.7,174.7a2.642,2.642,0,0,0,.589.535,4.362,4.362,0,0,0,5.031,0h0a2.7,2.7,0,0,0,.592-.541,3.83,3.83,0,0,1-1.486-2.356c-.013-.07-.028-.307-.04-.562l-3.177,0a5.243,5.243,0,0,1-.051.637A3.659,3.659,0,0,1,54.7,174.7Zm6.032,1.133h0Z" transform="translate(-42.57 -158.405)" fill="#707070"/>
    <path id="Path_730" data-name="Path 730" d="M62.417,166.858a4.618,4.618,0,1,0-9.224,0c0,3.1,2.064,5.6,4.612,5.6S62.417,169.953,62.417,166.858Z" transform="translate(-42.576 -157.387)" fill="#fff"/>
    <path id="Path_731" data-name="Path 731" d="M61.441,163.778c0,.074.018.14.018.217,0,3.095-2.064,5.6-4.612,5.6a4.37,4.37,0,0,1-3.63-2.155c.221,2.845,2.191,5.07,4.59,5.07,2.547,0,4.612-2.509,4.612-5.6A5.078,5.078,0,0,0,61.441,163.778Z" transform="translate(-42.578 -157.438)" fill="#f9ff45"/>
    <path id="Path_732" data-name="Path 732" d="M57.775,173.169c-2.939,0-5.332-2.841-5.332-6.333a5.337,5.337,0,1,1,10.663,0C63.106,170.328,60.715,173.169,57.775,173.169Zm0-10.461c-2.365,0-3.893,1.621-3.893,4.128,0,2.689,1.746,4.876,3.893,4.876s3.893-2.187,3.893-4.876C61.667,164.329,60.139,162.708,57.775,162.708Z" transform="translate(-42.518 -157.366)" fill="#707070"/>
    <ellipse id="Ellipse_71" data-name="Ellipse 71" cx="0.847" cy="1.715" rx="0.847" ry="1.715" transform="translate(8.044 27.004)" fill="#fff"/>
    <path id="Path_733" data-name="Path 733" d="M50.369,191.564a3.157,3.157,0,1,1,3.118-3.157A3.141,3.141,0,0,1,50.369,191.564Zm0-4.857a1.7,1.7,0,1,0,1.679,1.7A1.691,1.691,0,0,0,50.369,186.708Z" transform="translate(-41.494 -159.7)" fill="#707070"/>
    <ellipse id="Ellipse_72" data-name="Ellipse 72" cx="0.847" cy="2.572" rx="0.847" ry="2.572" transform="translate(8.044 35.577)" fill="#fff"/>
    <path id="Path_734" data-name="Path 734" d="M50.369,201.565a3.157,3.157,0,1,1,3.118-3.157A3.141,3.141,0,0,1,50.369,201.565Zm0-4.857a1.7,1.7,0,1,0,1.679,1.7A1.691,1.691,0,0,0,50.369,196.709Z" transform="translate(-41.494 -160.574)" fill="#707070"/>
    <ellipse id="Ellipse_73" data-name="Ellipse 73" cx="0.847" cy="2.572" rx="0.847" ry="2.572" transform="translate(8.044 44.15)" fill="#fff"/>
    <path id="Path_735" data-name="Path 735" d="M50.369,211.566a3.157,3.157,0,1,1,3.118-3.157A3.141,3.141,0,0,1,50.369,211.566Zm0-4.856a1.7,1.7,0,1,0,1.679,1.7A1.691,1.691,0,0,0,50.369,206.71Z" transform="translate(-41.494 -161.449)" fill="#707070"/>
    <path id="Path_736" data-name="Path 736" d="M85.521,186.959H74.971a.729.729,0,0,1,0-1.457h10.55a.729.729,0,0,1,0,1.457Z" transform="translate(-45.061 -159.592)" fill="#707070"/>
    <path id="Path_737" data-name="Path 737" d="M70.442,186.959H57.971a.729.729,0,0,1,0-1.457h12.47a.729.729,0,0,1,0,1.457Z" transform="translate(-43.153 -159.592)" fill="#707070"/>
    <path id="Path_738" data-name="Path 738" d="M79.52,191.459H68.971a.729.729,0,0,1,0-1.457H79.52a.729.729,0,0,1,0,1.457Z" transform="translate(-44.368 -159.965)" fill="#707070"/>
    <path id="Path_739" data-name="Path 739" d="M64.685,191.459H57.97a.729.729,0,0,1,0-1.457h6.715a.729.729,0,0,1,0,1.457Z" transform="translate(-43.001 -159.965)" fill="#707070"/>
    <path id="Path_740" data-name="Path 740" d="M85.4,196.959H71.967a.729.729,0,0,1,0-1.457H85.4a.729.729,0,0,1,0,1.457Z" transform="translate(-44.874 -160.421)" fill="#707070"/>
    <path id="Path_741" data-name="Path 741" d="M67.56,196.959H57.971a.729.729,0,0,1,0-1.457H67.56a.729.729,0,0,1,0,1.457Z" transform="translate(-43.072 -160.421)" fill="#707070"/>
    <path id="Path_742" data-name="Path 742" d="M72.357,201.459H57.97a.729.729,0,0,1,0-1.457H72.356a.729.729,0,0,1,0,1.457Z" transform="translate(-43.214 -160.793)" fill="#707070"/>
    <path id="Path_743" data-name="Path 743" d="M75.643,206.96H67.971a.729.729,0,0,1,0-1.457h7.671a.729.729,0,0,1,0,1.457Z" transform="translate(-44.132 -161.249)" fill="#707070"/>
    <path id="Path_744" data-name="Path 744" d="M63.726,206.96H57.97a.729.729,0,0,1,0-1.457h5.756a.729.729,0,0,1,0,1.457Z" transform="translate(-42.979 -161.249)" fill="#707070"/>
    <path id="Path_745" data-name="Path 745" d="M75.724,211.46H69.971a.729.729,0,0,1,0-1.457h5.753a.729.729,0,0,1,0,1.457Z" transform="translate(-44.276 -162.231)" fill="#707070"/>
    <path id="Path_746" data-name="Path 746" d="M65.645,211.46H57.971a.729.729,0,0,1,0-1.457h7.674a.729.729,0,0,1,0,1.457Z" transform="translate(-43.024 -162.231)" fill="#707070"/>
  </g>
</svg>
