<svg xmlns="http://www.w3.org/2000/svg" width="59.528" height="59.486" viewBox="0 0 59.528 59.486">
  <g id="Group_44" data-name="Group 44" transform="translate(0 0)">
    <ellipse id="Ellipse_100" data-name="Ellipse 100" cx="28.069" cy="28.049" rx="28.069" ry="28.049" transform="translate(1.454 1.451)" fill="#fff"/>
    <path id="Path_1069" data-name="Path 1069" d="M310.717,285.266a29.05,29.05,0,0,1,23.941,12.568,29.079,29.079,0,1,0-51.518,25.722,29.058,29.058,0,0,1,27.577-38.291Z" transform="translate(-277.317 -277.319)" fill="#f9ff45"/>
    <path id="Path_1070" data-name="Path 1070" d="M307.013,336.736a29.743,29.743,0,1,1,29.764-29.743A29.787,29.787,0,0,1,307.013,336.736Zm0-58.124a28.381,28.381,0,1,0,28.4,28.381A28.423,28.423,0,0,0,307.013,278.612Z" transform="translate(-277.249 -277.25)" fill="#707070"/>
    <path id="Path_1071" data-name="Path 1071" d="M321.291,326.5H310v14.073A29.028,29.028,0,0,0,332.68,329.7a8.4,8.4,0,0,0-1.673-.644Z" transform="translate(-280.235 -281.772)" fill="#f9ff45"/>
    <path id="Path_1072" data-name="Path 1072" d="M321.291,326.5H310v12.257c12.526-2.726,16.036-11.012,16.036-11.012Z" transform="translate(-280.235 -281.772)" fill="#fff"/>
    <path id="Path_1073" data-name="Path 1073" d="M309.933,341.19a.682.682,0,0,1-.682-.681V326.435a.682.682,0,0,1,.682-.681h11.29a.693.693,0,0,1,.173.022l9.715,2.55a9.187,9.187,0,0,1,1.809.7.681.681,0,0,1,.223,1.034A29.651,29.651,0,0,1,309.933,341.19Zm.682-14.073v12.7a28.273,28.273,0,0,0,20.9-9.934,7.735,7.735,0,0,0-.749-.242l-9.63-2.527Z" transform="translate(-280.167 -281.703)" fill="#707070"/>
    <path id="Path_1074" data-name="Path 1074" d="M307.724,340.577h0V326.5H296.438l-9.718,2.551a8.38,8.38,0,0,0-1.676.644A29.03,29.03,0,0,0,307.724,340.577Z" transform="translate(-277.96 -281.772)" fill="#f9ff45"/>
    <path id="Path_1075" data-name="Path 1075" d="M307.724,335.128s0-8.624,0-8.624H296.438l-9.718,2.551a8.38,8.38,0,0,0-1.676.644C296.384,330.544,296.016,338.717,307.724,335.128Z" transform="translate(-277.96 -281.772)" fill="#fff"/>
    <path id="Path_1076" data-name="Path 1076" d="M307.655,341.189a29.65,29.65,0,0,1-23.211-11.133.682.682,0,0,1,.224-1.034,9.087,9.087,0,0,1,1.812-.7l9.717-2.551a.657.657,0,0,1,.173-.022h11.288a.682.682,0,0,1,.682.681v14.074A.683.683,0,0,1,307.655,341.189Zm-21.582-11.3a28.277,28.277,0,0,0,20.9,9.934l0-12.7H296.458l-9.634,2.528A6.789,6.789,0,0,0,286.074,329.886Z" transform="translate(-277.891 -281.703)" fill="#707070"/>
    <path id="Path_1077" data-name="Path 1077" d="M308.868,332.536s11.219-2.418,11.29-6.978a8.741,8.741,0,0,1-4.663-6.106c-.073-.391-.131-2.872-.173-3.247l-12.922.009c-.051.43-.118,2.975-.208,3.438a8.41,8.41,0,0,1-4.613,5.906C297.681,330.1,308.868,332.536,308.868,332.536Z" transform="translate(-279.103 -280.827)" fill="#fff"/>
    <path id="Path_1078" data-name="Path 1078" d="M316.628,319.453c-.073-.391-.131-2.872-.173-3.247l-6.456,0c6.545,11.193,0,16.326,0,16.326s11.219-2.418,11.29-6.978A8.741,8.741,0,0,1,316.628,319.453Z" transform="translate(-280.235 -280.827)" fill="#f9ff45"/>
    <path id="Path_1079" data-name="Path 1079" d="M308.8,333.149a.645.645,0,0,1-.145-.016c-1.2-.261-11.716-2.691-11.826-7.627a.68.68,0,0,1,.381-.626,7.684,7.684,0,0,0,4.245-5.425c.044-.226.1-1.377.126-2.063.027-.608.053-1.144.074-1.324a.682.682,0,0,1,.676-.6l12.921-.009h0a.681.681,0,0,1,.677.6c.019.162.042.7.065,1.3.025.638.067,1.706.1,1.9a8.1,8.1,0,0,0,4.3,5.623.681.681,0,0,1,.371.618c-.079,4.958-10.626,7.374-11.829,7.632A.75.75,0,0,1,308.8,333.149Zm-10.56-7.271c.644,3.028,7.625,5.232,10.561,5.892,2.945-.658,9.953-2.859,10.566-5.9a9.444,9.444,0,0,1-4.61-6.362c-.048-.26-.079-.965-.124-2.094-.009-.213-.017-.418-.024-.6l-11.638.008c-.009.186-.019.4-.028.624-.053,1.171-.092,1.96-.15,2.262A9,9,0,0,1,298.24,325.878Z" transform="translate(-279.034 -280.758)" fill="#707070"/>
    <path id="Path_1080" data-name="Path 1080" d="M321.794,302.623c0-8.681-5.868-13.623-13.108-13.623s-13.108,4.941-13.108,13.623,5.868,15.719,13.108,15.719S321.794,311.3,321.794,302.623Z" transform="translate(-278.92 -278.329)" fill="#fff"/>
    <path id="Path_1081" data-name="Path 1081" d="M306.044,293.541c7.239,0,13.108,4.941,13.108,13.623a18.246,18.246,0,0,1-1.291,6.768,17.29,17.29,0,0,0,4.018-11.309c0-8.681-5.869-13.623-13.108-13.623-5.624,0-10.405,2.993-12.266,8.392A12.964,12.964,0,0,1,306.044,293.541Z" transform="translate(-279.005 -278.329)" fill="#f9ff45"/>
    <path id="Path_1082" data-name="Path 1082" d="M308.618,318.954c-7.6,0-13.79-7.357-13.79-16.4,0-8.422,5.67-14.3,13.79-14.3s13.79,5.882,13.79,14.3C322.407,311.6,316.221,318.954,308.618,318.954Zm0-29.342c-7.432,0-12.426,5.2-12.426,12.942,0,8.292,5.575,15.038,12.426,15.038s12.426-6.746,12.426-15.038C321.044,294.814,316.05,289.612,308.618,289.612Z" transform="translate(-278.852 -278.26)" fill="#707070"/>
    <path id="Path_1083" data-name="Path 1083" d="M308.687,300.2c-5.207-2.374-9.21-2.726-12.177-2.271a15.832,15.832,0,0,0-.931,5.5c0,8.681,5.868,15.719,13.108,15.719s13.108-7.038,13.108-15.719a17.276,17.276,0,0,0-.261-3.034A16.186,16.186,0,0,1,308.687,300.2Z" transform="translate(-278.92 -279.133)" fill="#f9ff45"/>
    <path id="Path_1084" data-name="Path 1084" d="M308.687,300.2c-5.291-2.178-9.21-2.725-12.177-2.271a15.832,15.832,0,0,0-.931,5.5c0,8.681,5.868,15.719,13.108,15.719,9.5-4.634,6.487-16.67,5.645-17.54A17.377,17.377,0,0,1,308.687,300.2Z" transform="translate(-278.92 -279.135)" fill="#fff"/>
    <path id="Path_1085" data-name="Path 1085" d="M308.618,319.758c-7.6,0-13.79-7.357-13.79-16.4a16.556,16.556,0,0,1,.972-5.732.681.681,0,0,1,.537-.438c3.705-.569,7.936.213,12.564,2.324a15.4,15.4,0,0,0,12.318.176.682.682,0,0,1,.916.516,18.015,18.015,0,0,1,.272,3.154C322.407,312.4,316.221,319.758,308.618,319.758Zm-11.671-21.28a15.363,15.363,0,0,0-.755,4.88c0,8.292,5.575,15.038,12.426,15.038s12.426-6.746,12.426-15.038a17.07,17.07,0,0,0-.129-2.111,16.553,16.553,0,0,1-12.58-.5h0C304.124,298.831,300.294,298.07,296.947,298.478Z" transform="translate(-278.852 -279.064)" fill="#707070"/>
    <path id="Path_1086" data-name="Path 1086" d="M323.771,314.983h-11.59a.681.681,0,1,1,0-1.362h11.59a2.047,2.047,0,0,0,2.045-2.043v-3.5a.682.682,0,0,1,1.363,0v3.5A3.412,3.412,0,0,1,323.771,314.983Z" transform="translate(-280.372 -280.018)" fill="#707070"/>
    <path id="Path_1087" data-name="Path 1087" d="M311.839,314.793h0a2.044,2.044,0,0,1-2.045,2.043h0a2.044,2.044,0,0,1-2.045-2.043h0a2.045,2.045,0,0,1,2.045-2.043h0A2.044,2.044,0,0,1,311.839,314.793Z" transform="translate(-280.03 -280.509)" fill="#fff"/>
    <path id="Path_1088" data-name="Path 1088" d="M309.725,317.449a2.725,2.725,0,1,1,2.726-2.725A2.729,2.729,0,0,1,309.725,317.449Zm0-4.087a1.362,1.362,0,1,0,1.363,1.362A1.364,1.364,0,0,0,309.725,313.362Z" transform="translate(-279.961 -280.44)" fill="#707070"/>
    <path id="Path_1089" data-name="Path 1089" d="M323.834,299.052a.682.682,0,0,1-.682-.681,14.768,14.768,0,0,0-29.537,0,.682.682,0,0,1-1.363,0,16.132,16.132,0,0,1,32.263,0A.682.682,0,0,1,323.834,299.052Z" transform="translate(-278.617 -277.709)" fill="#707070"/>
    <path id="Path_1090" data-name="Path 1090" d="M324.908,298.5h0a3.634,3.634,0,0,1,3.635,3.633v2.725a3.634,3.634,0,0,1-3.635,3.633h0a.908.908,0,0,1-.909-.908v-8.174A.909.909,0,0,1,324.908,298.5Z" transform="translate(-281.511 -279.201)" fill="#fff"/>
    <path id="Path_1091" data-name="Path 1091" d="M328.543,302.133a3.634,3.634,0,0,0-3.635-3.633.909.909,0,0,0-.909.908v3.633h1.818a2.721,2.721,0,0,1,2.681,2.27,3.524,3.524,0,0,0,.045-.454Z" transform="translate(-281.511 -279.201)" fill="#f9ff45"/>
    <path id="Path_1092" data-name="Path 1092" d="M324.84,309.1a1.592,1.592,0,0,1-1.59-1.589v-8.174a1.592,1.592,0,0,1,1.59-1.589,4.321,4.321,0,0,1,4.317,4.314v2.725A4.32,4.32,0,0,1,324.84,309.1Zm0-9.99a.227.227,0,0,0-.227.227v8.174a.227.227,0,0,0,.227.227,2.956,2.956,0,0,0,2.954-2.952v-2.725A2.956,2.956,0,0,0,324.84,299.112Z" transform="translate(-281.443 -279.132)" fill="#707070"/>
    <path id="Path_1093" data-name="Path 1093" d="M294.634,308.49h0A3.634,3.634,0,0,1,291,304.857v-2.725a3.634,3.634,0,0,1,3.635-3.633h0a.908.908,0,0,1,.909.908v8.174A.908.908,0,0,1,294.634,308.49Z" transform="translate(-278.503 -279.201)" fill="#fff"/>
    <path id="Path_1094" data-name="Path 1094" d="M291,305.179a3.634,3.634,0,0,0,3.635,3.633.908.908,0,0,0,.909-.908V304.27h-1.818a2.72,2.72,0,0,1-2.68-2.27,3.581,3.581,0,0,0-.046.454Z" transform="translate(-278.503 -279.522)" fill="#f9ff45"/>
    <path id="Path_1095" data-name="Path 1095" d="M294.566,309.1a4.32,4.32,0,0,1-4.317-4.314v-2.725a4.321,4.321,0,0,1,4.317-4.314,1.592,1.592,0,0,1,1.591,1.589v8.174A1.592,1.592,0,0,1,294.566,309.1Zm0-9.99a2.956,2.956,0,0,0-2.954,2.951v2.725a2.956,2.956,0,0,0,2.954,2.952.227.227,0,0,0,.227-.227v-8.174A.227.227,0,0,0,294.566,299.112Z" transform="translate(-278.434 -279.132)" fill="#707070"/>
    <path id="Path_1096" data-name="Path 1096" d="M336.6,314.772h-3.635a.681.681,0,1,1,0-1.362H336.6a.681.681,0,1,1,0,1.362Z" transform="translate(-282.267 -280.57)" fill="#707070"/>
    <path id="Path_1097" data-name="Path 1097" d="M334.966,316.4a.682.682,0,0,1-.682-.681v-3.633a.682.682,0,0,1,1.363,0v3.633A.682.682,0,0,1,334.966,316.4Z" transform="translate(-282.449 -280.386)" fill="#707070"/>
    <path id="Path_1098" data-name="Path 1098" d="M285.976,306.362h-3.635a.681.681,0,1,1,0-1.362h3.635a.681.681,0,1,1,0,1.362Z" transform="translate(-277.651 -279.798)" fill="#707070"/>
    <path id="Path_1099" data-name="Path 1099" d="M284.341,308a.682.682,0,0,1-.682-.681v-3.633a.682.682,0,0,1,1.363,0v3.633A.682.682,0,0,1,284.341,308Z" transform="translate(-277.833 -279.614)" fill="#707070"/>
    <path id="Path_1100" data-name="Path 1100" d="M291.476,320.818h-3.635a.681.681,0,1,1,0-1.362h3.635a.681.681,0,1,1,0,1.362Z" transform="translate(-278.153 -281.125)" fill="#707070"/>
    <path id="Path_1101" data-name="Path 1101" d="M289.841,322.451a.682.682,0,0,1-.682-.681v-3.633a.682.682,0,0,1,1.363,0v3.633A.682.682,0,0,1,289.841,322.451Z" transform="translate(-278.335 -280.941)" fill="#707070"/>
  </g>
</svg>
