<svg id="Het1PX.tif" xmlns="http://www.w3.org/2000/svg" width="36.807" height="30.845" viewBox="0 0 36.807 30.845">
  <g id="Group_12" data-name="Group 12" transform="translate(-412.411 -187.553)">
    <path id="Path_40" data-name="Path 40" d="M449.218,189.483a23.315,23.315,0,0,1-.542,2.82q-2.53,11.984-5.08,23.962a4.206,4.206,0,0,1-.449,1.331,1.49,1.49,0,0,1-1.758.748,3.465,3.465,0,0,1-1.3-.631c-2.556-1.9-5.123-3.781-7.673-5.689a.5.5,0,0,0-.784.056c-1.257,1.249-2.539,2.473-3.8,3.719a2.223,2.223,0,0,1-1.712.735.893.893,0,0,1-.93-.692c-.788-2.462-1.59-4.921-2.388-7.38-.271-.835-.557-1.665-.81-2.505a.734.734,0,0,0-.553-.551c-2.5-.769-5-1.555-7.5-2.335a4,4,0,0,1-.955-.392.908.908,0,0,1-.15-1.616,4.511,4.511,0,0,1,1.469-.823q5.11-1.974,10.221-3.945l22.07-8.507c.058-.023.116-.048.174-.07A1.686,1.686,0,0,1,449.218,189.483Zm-23.082,24.7a.214.214,0,0,0,.129-.225c.167-1.795.342-3.589.489-5.385a1.505,1.505,0,0,1,.521-1.091q7.194-6.458,14.362-12.943c.3-.273.608-.544.9-.824.122-.116.282-.249.187-.441s-.31-.192-.5-.17a2.37,2.37,0,0,0-.988.416q-8.852,5.585-17.708,11.16a.542.542,0,0,0-.262.763c.731,2.184,1.44,4.376,2.155,6.566C425.663,212.734,425.9,213.457,426.136,214.186Z" fill="#f1f2f2"/>
  </g>
</svg>
