<svg id="Icons_24px_Black_Single" data-name="Icons/24px/Black/Single" xmlns="http://www.w3.org/2000/svg" width="50" height="60" viewBox="0 0 50 60">
  <g id="single-02">
    <path id="Path" d="M33.444,0a16.876,16.876,0,0,1-8.6,2.427A16.876,16.876,0,0,1,16.246,0,17.4,17.4,0,0,0,0,17.334v4.3l1.727.554c.333.1,8.306,2.6,23.118,2.6s22.785-2.5,23.118-2.6l1.727-.554v-4.3A17.4,17.4,0,0,0,33.444,0Z" transform="translate(0 34.84)" fill="#172b4d"/>
    <path id="Path-2" data-name="Path" d="M14.907,32.3c8.4,0,14.907-9.349,14.907-17.392A14.907,14.907,0,0,0,0,14.907C0,22.949,6.512,32.3,14.907,32.3Z" transform="translate(9.938)" fill="#172b4d"/>
  </g>
</svg>
