<?xml version="1.0"?>
<svg xmlns="http://www.w3.org/2000/svg" id="Layer_1" enable-background="new 0 0 480.001 480.001" height="512px" viewBox="0 0 480.001 480.001" width="512px"><g><path d="m295.247 342.111-50.34 38.98c-2.89 2.23-6.91 2.23-9.8 0l-50.39-39.02c-3.04-2.35-3.34-6.85-.61-9.55 1.376-1.351 2.632-2.822 3.751-4.396 2.066-2.903 5.875-3.981 9.213-2.733 27.615 10.319 58.359 10.313 85.966-.035 3.341-1.253 7.046-.033 9.147 2.852 1.16 1.593 2.349 2.935 3.664 4.252 2.759 2.74 2.469 7.28-.601 9.65zm29.095.227c-1.94-.113-3.858.476-5.395 1.666l-74.042 57.323c-2.884 2.232-6.911 2.232-9.795 0l-74.042-57.323c-1.537-1.19-3.455-1.779-5.395-1.666-43.339 2.521-77.665 38.401-77.665 82.403v47.26c0 4.418 3.582 8 8 8h308c4.418 0 8-3.582 8-8v-47.26c-.001-43.99-34.313-79.881-77.666-82.403zm63.585-138.407c-10.42-15.63-15.92-33.82-15.92-52.6v-43.33c0-59.41-48.23-107.78-107.59-107.99-.218-.016-48.19-.01-48.41-.01-59.55 0-108 48.45-108 108v43.33c0 18.78-5.5 36.97-15.92 52.6-27.949 41.968-24.746 96.897 6.548 135.058 2.541 3.099 6.987 3.799 10.399 1.697 15.44-9.509 33.144-14.515 51.543-14.515 13.209 0 14.794-11.171 8.729-15.446-31.61-22.284-52.299-59.067-52.299-100.603v-56.12c0-14.466 12.748-25.702 27.16-23.79 47.841 6.336 96.623-5.89 136.24-36.26 15.736-12.056 38.578-.84 38.6 19.01.03.62.59 11.39 7.37 15.47 3.54 2.14 7.56 2.02 9.64 1.76 14.565-1.834 26.99 9.612 26.99 23.81v56.12c0 41.535-20.689 78.318-52.297 100.602-6.068 4.278-4.486 15.448 8.727 15.448 18.744 0 36.482 5.215 51.534 14.497 3.419 2.108 7.871 1.414 10.419-1.691 31.75-38.696 34.051-93.731 6.537-135.047zm-49.92-57.87c-4.13.52-12.2.7-19.88-3.91-15.04-9.06-15.12-28.9-15.12-29.1.043-6.645-7.599-10.434-12.87-6.4-43.15 33.08-96.216 46.289-148.08 39.42-4.795-.631-9.05 3.088-9.05 7.93v56.12c0 59 48 107 107 107s107-48 107-107v-56.12c0-4.744-4.15-8.536-9-7.94z" data-original="#000000" class="active-path" data-old_color="#000000" fill="#0E2A47"/></g> </svg>
